<?xml version="1.0" standalone="no"?>
<!DOCTYPE svg PUBLIC "-//W3C//DTD SVG 20010904//EN"
 "http://www.w3.org/TR/2001/REC-SVG-20010904/DTD/svg10.dtd">
<svg version="1.0" xmlns="http://www.w3.org/2000/svg"
 width="551.000000pt" height="551.000000pt" viewBox="0 0 551.000000 551.000000"
 preserveAspectRatio="xMidYMid meet">
<metadata>
Created by potrace 1.14, written by Peter Selinger 2001-2017
</metadata>
<g transform="translate(0.000000,551.000000) scale(0.100000,-0.100000)"
fill="#000000" stroke="none">
<path d="M3547 5504 c-1 -1 -33 -5 -72 -8 -102 -8 -153 -15 -255 -36 -30 -6
-66 -13 -81 -15 -14 -2 -65 -15 -115 -30 -49 -14 -93 -27 -99 -29 -91 -26
-348 -122 -394 -147 -9 -4 -70 -35 -136 -67 -154 -76 -289 -154 -445 -257
-157 -104 -399 -286 -476 -358 -6 -7 -36 -32 -65 -57 -70 -59 -358 -347 -430
-430 -83 -96 -165 -197 -255 -315 -51 -67 -215 -313 -234 -350 -8 -17 -17 -32
-21 -35 -21 -19 -183 -341 -239 -475 -75 -181 -150 -424 -175 -570 -3 -16 -8
-37 -10 -45 -2 -8 -7 -37 -11 -65 -3 -27 -8 -58 -10 -69 -15 -79 -20 -314 -9
-426 6 -68 32 -214 46 -256 5 -17 11 -40 14 -50 11 -57 110 -276 126 -282 5
-2 9 -10 9 -18 0 -8 3 -14 8 -14 4 0 16 -17 27 -37 30 -55 201 -223 280 -275
146 -95 338 -174 470 -193 22 -3 45 -8 52 -10 25 -8 183 -19 283 -19 99 0 223
8 300 20 124 18 389 81 408 96 6 6 12 8 12 5 0 -4 44 9 98 29 53 19 102 36
107 38 6 1 27 10 49 19 21 9 40 17 42 17 14 0 307 143 418 204 105 58 323 199
426 275 30 23 65 49 78 58 13 9 32 24 42 32 10 9 47 38 82 66 35 27 68 54 74
60 6 5 37 33 70 60 84 72 390 378 456 456 30 37 62 74 69 83 8 10 21 25 30 34
27 29 173 223 231 307 167 242 330 542 429 790 222 559 264 1084 119 1500 -29
85 -98 227 -112 233 -5 2 -8 9 -8 16 0 27 -191 242 -251 281 -9 6 -38 24 -65
42 -27 18 -53 36 -59 40 -24 19 -196 93 -263 113 -85 25 -193 46 -280 56 -58
6 -280 12 -285 8z m29 -538 c11 -3 38 -8 59 -10 194 -22 407 -134 550 -288 58
-63 165 -223 165 -247 0 -5 9 -29 20 -53 18 -42 48 -153 56 -208 19 -140 22
-244 10 -375 -5 -44 -9 -82 -11 -85 -2 -3 -6 -27 -9 -55 -35 -258 -198 -655
-401 -972 -76 -120 -252 -358 -310 -419 -5 -6 -39 -44 -75 -85 -131 -148 -293
-300 -459 -433 -47 -37 -96 -77 -109 -87 -34 -29 -251 -172 -329 -217 -65 -38
-257 -135 -298 -152 -26 -10 -86 -36 -127 -54 -36 -16 -247 -82 -288 -91 -14
-2 -54 -11 -90 -19 -105 -23 -157 -28 -315 -31 -274 -6 -472 44 -661 167 -60
38 -159 133 -211 200 -48 63 -133 222 -133 250 0 9 -4 19 -9 22 -5 3 -11 18
-14 33 -3 16 -8 42 -12 58 -28 124 -40 372 -22 470 4 17 9 51 12 76 5 39 25
137 39 191 29 111 60 209 86 273 35 85 109 249 131 291 55 105 103 189 111
192 4 2 8 8 8 13 0 13 140 223 151 227 5 2 9 10 9 17 0 7 3 15 8 17 4 2 27 30
52 63 25 33 50 65 55 71 6 6 24 27 40 48 49 62 143 163 265 286 151 151 230
220 440 383 46 36 170 117 178 117 6 0 12 4 14 9 6 18 261 158 402 221 210 94
487 171 671 187 39 3 71 7 73 8 6 5 260 -3 278 -9z"/>
<path d="M3388 4745 c-2 -1 -47 -5 -100 -9 -53 -3 -103 -8 -110 -11 -7 -3 -26
-7 -43 -9 -49 -6 -159 -34 -248 -62 -319 -104 -656 -297 -974 -558 -150 -124
-438 -415 -503 -510 -8 -11 -19 -25 -25 -31 -35 -30 -211 -287 -282 -410 -202
-350 -316 -722 -314 -1020 0 -84 5 -142 15 -190 20 -96 33 -132 72 -212 46
-93 125 -188 204 -245 75 -54 210 -110 295 -122 23 -4 52 -9 65 -11 32 -7 258
-7 289 0 14 2 45 7 70 10 125 14 344 80 519 157 412 179 846 506 1168 878 21
25 41 47 44 50 3 3 44 55 91 115 196 252 342 505 444 770 40 105 89 266 100
330 2 17 7 39 9 51 23 113 27 311 9 414 -23 130 -29 150 -74 240 -85 166 -210
268 -414 338 -70 24 -294 58 -307 47z m-172 -415 c216 -43 400 -178 492 -360
60 -121 83 -219 85 -365 1 -152 -8 -221 -50 -365 -44 -153 -127 -337 -208
-458 -19 -30 -35 -58 -35 -63 0 -5 -3 -9 -7 -9 -5 -1 -24 -25 -43 -55 -19 -30
-38 -55 -42 -55 -5 0 -8 -7 -8 -15 0 -8 -4 -15 -8 -15 -4 0 -24 -21 -44 -47
-36 -48 -188 -204 -266 -275 -207 -189 -453 -340 -692 -426 -98 -35 -190 -63
-190 -57 0 3 -10 1 -23 -4 -56 -22 -289 -33 -383 -18 -330 50 -567 290 -609
615 -11 81 -9 210 4 272 6 30 13 69 16 86 20 125 107 352 196 514 66 120 207
316 289 401 174 183 234 238 375 344 124 94 366 235 402 235 7 0 13 5 13 12 0
6 3 9 6 6 3 -4 30 5 60 18 29 13 64 25 76 28 13 2 36 9 53 16 38 15 156 40
220 47 28 3 51 6 53 8 8 6 218 -5 268 -15z"/>
<path d="M2880 4075 c-90 -16 -189 -45 -255 -74 -26 -11 -52 -21 -58 -21 -6 0
-18 -7 -28 -16 -9 -8 -23 -16 -31 -17 -41 -7 -258 -145 -378 -242 -122 -98
-121 -97 -220 -201 -265 -279 -425 -579 -479 -899 -9 -52 -7 -222 3 -264 24
-102 85 -213 146 -264 80 -68 217 -111 345 -109 61 1 177 12 186 18 4 2 23 6
44 10 20 3 56 12 78 21 23 8 51 16 62 19 11 2 29 8 40 13 11 6 61 29 110 52
91 42 237 127 243 141 2 5 8 8 14 8 18 0 218 162 303 245 158 154 291 332 387
516 45 87 101 222 107 262 0 4 7 23 15 42 8 19 13 35 11 35 -2 0 1 15 6 33 21
72 29 222 16 316 -21 149 -110 281 -227 333 -113 51 -293 69 -440 43z m-15
-450 c157 -52 245 -180 246 -359 2 -290 -222 -611 -536 -770 -132 -66 -194
-81 -335 -80 -86 0 -101 3 -162 32 -87 42 -157 118 -184 198 -28 86 -25 255 6
344 26 74 88 198 110 220 3 3 24 30 47 60 145 187 367 331 568 367 17 2 31 6
33 8 9 9 165 -6 207 -20z"/>
<path d="M2683 3408 c-125 -19 -246 -88 -363 -207 -95 -97 -105 -109 -150
-195 -46 -86 -80 -219 -59 -232 5 -3 6 -10 3 -16 -3 -5 2 -27 11 -48 22 -48
68 -69 141 -65 192 12 424 193 545 425 13 25 25 49 26 55 1 5 9 35 16 65 21
84 7 163 -37 199 -24 20 -76 28 -133 19z"/>
<path d="M5200 4180 c-1 -140 -7 -228 -25 -345 -7 -44 -43 -229 -50 -257 -3
-10 -7 -26 -9 -37 -6 -28 -46 -164 -53 -181 -4 -8 -7 -17 -8 -20 -17 -63 -79
-223 -133 -345 -102 -226 -312 -593 -424 -740 -5 -5 -47 -62 -95 -125 -47 -63
-89 -117 -92 -120 -3 -3 -24 -27 -45 -55 -22 -27 -47 -57 -55 -66 -9 -9 -41
-45 -71 -80 -125 -146 -431 -441 -585 -564 -27 -22 -52 -43 -55 -46 -18 -20
-249 -188 -365 -264 -126 -84 -175 -113 -318 -194 -103 -58 -302 -152 -412
-196 -66 -26 -135 -54 -153 -62 -18 -8 -45 -17 -58 -19 -14 -3 -42 -11 -62
-19 -42 -16 -309 -85 -353 -90 -15 -2 -54 -9 -86 -14 -102 -19 -264 -30 -433
-31 l-45 0 47 -24 c149 -75 445 -176 623 -212 11 -2 31 -6 45 -9 14 -3 36 -7
50 -10 14 -3 36 -7 50 -9 14 -3 49 -8 79 -11 30 -4 62 -8 71 -10 121 -23 504
-23 680 0 19 2 58 7 85 10 28 4 57 8 65 10 17 5 76 16 105 19 11 2 29 6 40 9
11 3 34 9 50 11 71 12 311 89 439 140 133 54 360 166 417 207 15 10 35 20 45
21 11 1 69 -22 129 -53 125 -63 151 -72 163 -55 20 25 20 46 1 70 l-20 26 41
0 c59 0 95 37 86 88 -3 20 -12 42 -21 48 -21 16 -19 20 14 33 24 10 86 17 196
20 61 2 108 99 69 142 -13 15 -14 19 -3 20 8 0 23 3 34 5 11 2 34 6 50 8 48 6
136 25 146 31 16 10 10 41 -16 79 -14 20 -25 41 -25 46 0 4 29 12 65 15 35 4
72 13 82 21 17 12 17 14 1 44 -30 53 -24 63 55 100 39 19 77 39 84 45 7 5 19
16 28 23 13 11 0 28 -95 123 l-111 111 27 47 c100 173 219 437 269 601 10 30
23 73 30 95 17 54 62 254 75 340 27 170 34 267 35 475 0 251 -19 438 -66 639
-11 47 -21 92 -23 100 -2 9 -5 23 -8 31 -8 24 -50 162 -53 174 -1 6 -7 25 -14
41 -7 17 -19 49 -27 73 -9 24 -35 87 -59 140 l-44 97 -1 -115z"/>
</g>
</svg>
